<?xml version="1.0" encoding="UTF-8"?>
<svg width="25px" height="32px" viewBox="0 0 25 32" version="1.1" xmlns="http://www.w3.org/2000/svg" xmlns:xlink="http://www.w3.org/1999/xlink">
    <!-- Generator: Sketch 53.2 (72643) - https://sketchapp.com -->
    <title>carrito blanco</title>
    <desc>Created with Sketch.</desc>
    <g id="Desk" stroke="none" stroke-width="1" fill="none" fill-rule="evenodd">
        <g id="Desktop-home---slider-2" transform="translate(-1315.000000, -50.000000)" fill="#FFFFFF" fill-rule="nonzero">
            <g id="cabecera" transform="translate(137.000000, 50.000000)">
                <g id="carrito-blanco" transform="translate(1178.000000, 0.000000)">
                    <path d="M20.340901,32 L4.65816307,32 C2.0906929,32 0,29.9082921 0,27.3085286 C0,27.2343262 0.00609350934,27.1602554 0.0182160555,27.0870997 L2.80921179,10.2443496 C2.91461645,9.60826679 3.45250591,9.14285714 4.08224332,9.14285714 L20.9168208,9.14285714 C21.5465582,9.14285714 22.0844476,9.60826679 22.1898523,10.2443496 L24.980848,27.0870997 L24.9986806,27.2762908 C25.0607237,29.883984 22.9263132,32 20.340901,32 Z M4.65816307,29.3541574 L20.340901,29.3541574 C21.4781442,29.3541574 22.3952265,28.4735691 22.4170769,27.4230948 L19.8263165,11.7886998 L5.1727476,11.7886998 L2.58481297,27.4060424 C2.63623488,28.4855754 3.5369877,29.3541574 4.65816307,29.3541574 Z" id="Stroke-1"></path>
                    <path d="M7.94930851,9.14285714 L7.94930851,6.52942697 C7.94930851,4.32125364 9.79334456,2.52216723 12.0533588,2.52216723 C14.3134856,2.52216723 16.1578344,4.32136316 16.1578344,6.52942697 L16.1578344,9.14285714 L18.75,9.14285714 L18.75,6.52942697 C18.75,2.92986819 15.7466035,0 12.0533588,0 C8.3601634,0 5.35714286,2.92981987 5.35714286,6.52942697 L5.35714286,9.14285714 L7.94930851,9.14285714 Z" id="Stroke-3"></path>
                </g>
            </g>
        </g>
    </g>
</svg>