<?xml version="1.0" encoding="UTF-8"?>
<svg width="51px" height="52px" viewBox="0 0 51 52" version="1.1" xmlns="http://www.w3.org/2000/svg" xmlns:xlink="http://www.w3.org/1999/xlink">
    <!-- Generator: Sketch 53.2 (72643) - https://sketchapp.com -->
    <title>Group 16</title>
    <desc>Created with Sketch.</desc>
    <defs>
        <polygon id="path-1" points="0 0.0416227181 50.9583327 0.0416227181 50.9583327 50.9878296 0 50.9878296"></polygon>
    </defs>
    <g id="Desk" stroke="none" stroke-width="1" fill="none" fill-rule="evenodd">
        <g id="Desktop-detalle-producto---slider-1" transform="translate(-913.000000, -1308.000000)">
            <g id="Group-11" transform="translate(690.000000, 1121.000000)">
                <g id="Group-2-Copy-2" transform="translate(0.000000, 159.000000)">
                    <g id="Group-8" transform="translate(223.000000, 28.000000)">
                        <g id="Group-16" transform="translate(0.000000, 0.073996)">
                            <path d="M32.1037483,11.7592272 C31.5942109,11.7592272 31.1977755,11.363002 31.1977755,10.8535862 C31.1977755,10.3440548 31.5942109,9.94782961 32.1037483,9.94782961 C32.6132857,9.94782961 33.0097211,10.3440548 33.0097211,10.8535862 C33.0097211,11.363002 32.6132857,11.7592272 32.1037483,11.7592272 M32.1037483,7.96658824 C30.4618027,7.96658824 29.1595102,9.26856998 29.1595102,10.9101237 C29.1595102,12.5516775 30.4618027,13.8536592 32.1037483,13.8536592 C33.7456939,13.8536592 35.0479864,12.5516775 35.0479864,10.9101237 C35.0479864,9.26856998 33.7456939,7.96658824 32.1037483,7.96658824" id="Fill-1" fill="#A7874D"></path>
                            <path d="M32.8398599,22.9107858 C30.4051592,22.9107858 28.0836762,21.9484917 26.3283973,20.2502848 C24.573234,18.4955404 23.6673769,16.2312645 23.6673769,13.7404917 C23.6673769,13.1744227 23.2143905,12.7215444 22.6481864,12.7215444 C22.0819823,12.7215444 21.6289959,13.1744227 21.6289959,13.7404917 C21.6289959,16.7406803 22.8179551,19.5710252 24.9130027,21.6654572 C27.007819,23.7598892 29.8389551,24.9485647 32.8398599,24.9485647 C33.4060639,24.9485647 33.8590503,24.495802 33.8590503,23.9297331 C33.8590503,23.3636641 33.4060639,22.9107858 32.8398599,22.9107858" id="Fill-3" fill="#A7874D"></path>
                            <g id="Group-7">
                                <mask id="mask-2" fill="white">
                                    <use xlink:href="#path-1"></use>
                                </mask>
                                <g id="Clip-6"></g>
                                <path d="M45.4095095,18.4388641 C43.3145776,22.6843813 40.2570061,26.5336734 36.5767952,29.5337465 C33.0663531,32.4207444 29.0462578,34.5151765 24.6865095,35.7606207 C22.4216932,36.4398803 20.1002102,36.8361055 17.7221762,37.0058337 C16.9860878,37.0626024 15.4573599,37.0626024 15.4573599,37.0626024 L13.3057612,37.11914 C9.51221701,37.11914 6.39809456,40.2325193 6.39809456,44.0251582 C6.39809456,45.1572961 6.6811966,46.2894341 7.19084966,47.2518438 C6.51131224,46.7989655 5.83189048,46.2894341 5.26568639,45.7233651 C3.96339388,44.4213834 3.00087007,42.7798296 2.49133265,41.0249696 L2.49133265,40.968432 C2.20823061,40.0626755 2.09501293,39.1003813 2.09501293,38.1947404 L2.09501293,37.9682434 L2.09501293,35.2510892 L2.09501293,34.9680548 C2.20823061,25.5147262 6.34142789,16.9671542 12.9094415,10.9101237 L12.9659925,10.8535862 C18.1184959,6.15519067 24.7997272,2.98515822 32.2170469,2.24924544 C33.3494551,2.13605477 34.5384143,2.07940162 35.6142714,2.07940162 L40.0305707,2.07940162 C39.0114959,3.21153955 38.3320741,4.68336511 38.3320741,6.32503448 L38.3320741,18.8350892 C38.3320741,19.4011582 38.7849449,19.8540365 39.351149,19.8540365 C39.6343667,19.8540365 39.860802,19.7408458 40.0872374,19.571002 L48.0707612,11.8158803 C47.4478905,14.1368093 46.5419177,16.2311258 45.4095095,18.4388641 L45.4095095,18.4388641 Z M31.6507272,39.4966065 L31.6507272,44.195002 L14.5513871,48.7800913 C14.268285,48.83686 13.985183,48.8933976 13.702081,48.8933976 L13.5888633,48.8933976 L13.1925435,48.8933976 C10.5314075,48.83686 8.43647551,46.6856592 8.43647551,44.0251582 C8.43647551,41.3080041 10.6446252,39.1570345 13.3057612,39.1570345 L13.3624279,39.1570345 L15.5705776,39.1003813 C15.9668973,39.1003813 17.2126388,39.0437282 17.8353939,38.9871907 C20.3266456,38.8173469 22.8180129,38.3644686 25.1960469,37.6852089 C25.5357,37.5720183 25.8189177,37.458712 26.1585707,37.4021744 L31.6507272,39.4966065 Z M33.6891082,39.3834158 L40.3137884,35.5907769 L40.3137884,38.874 L38.3320741,38.874 C37.7657544,38.874 37.312768,39.3268783 37.312768,39.8928316 C37.312768,40.4590162 37.7657544,40.9118945 38.3320741,40.9118945 L40.3137884,40.9118945 L40.3137884,42.9496734 L38.3320741,42.9496734 C37.7657544,42.9496734 37.312768,43.4025517 37.312768,43.9686207 C37.312768,44.5346897 37.7657544,44.987568 38.3320741,44.987568 L40.3137884,44.987568 L40.3137884,48.2141379 L33.6891082,44.4213834 L33.6891082,39.3834158 Z M4.8127,17.816142 C3.7369585,19.6841927 2.77443469,21.6654341 2.03834626,23.7598661 L2.03834626,17.816142 L4.8127,17.816142 Z M6.0584415,15.7783631 L2.03834626,15.7783631 L2.03834626,11.1931582 L9.73865238,11.1931582 C8.37980884,12.6083306 7.19084966,14.1368093 6.0584415,15.7783631 L6.0584415,15.7783631 Z M50.9583327,6.32503448 C50.9583327,5.75896552 50.5053463,5.30608722 49.9391422,5.30608722 C49.3729381,5.30608722 48.9766184,5.75896552 48.9199517,6.26838134 C48.9199517,6.49476268 48.9199517,6.66460649 48.8634007,6.89110345 C48.806734,7.23067546 48.6935163,7.62690061 48.5802986,7.96658824 C48.3538633,8.47611968 48.0707612,8.92888235 47.6743259,9.32510751 L40.3703395,16.4576227 L40.3703395,6.32503448 C40.3703395,3.94745233 42.2953871,2.07940162 44.6168701,2.07940162 C45.1830741,2.07940162 45.6360605,1.62663895 45.6360605,1.06056998 C45.6360605,0.494501014 45.2396252,0.0416227181 44.6735367,0.0416227181 L35.6142714,0.0416227181 C34.4251966,0.0416227181 33.2361218,0.0982758621 31.9904959,0.211466531 C24.2335231,1.00391684 17.2691898,4.23048682 11.8335844,9.15537931 L1.01915578,9.15537931 C0.452951701,9.15537931 -3.46938775e-05,9.60825761 -3.46938775e-05,10.174211 L-3.46938775e-05,38.1947404 C-3.46938775e-05,39.3268783 0.16984966,40.4022475 0.452951701,41.4778479 L0.452951701,41.5343854 C1.07582245,43.6855862 2.20823061,45.6101744 3.79362517,47.1950751 C6.28487687,49.6291947 9.56876803,50.9878296 13.0226592,50.9878296 L13.1925435,50.9878296 L13.702081,50.9878296 L13.8154143,50.9878296 C14.211734,50.9312921 14.6646048,50.8746389 15.0610401,50.7613327 L32.5000333,46.1197059 L40.8233259,50.8746389 C40.9932102,50.9878296 41.1629789,50.9878296 41.3328633,50.9878296 C41.5027476,50.9878296 41.672632,50.9312921 41.8424007,50.8746389 C42.1821694,50.7047951 42.3520537,50.3651075 42.3520537,49.968998 L42.3520537,33.7792637 C42.3520537,33.4396917 42.1821694,33.1000041 41.8424007,32.8736227 C41.5027476,32.7037789 41.1629789,32.7037789 40.8233259,32.8736227 L32.5567,37.6285558 L29.1028088,36.326574 C32.2170469,35.0247079 35.161285,33.2698479 37.8224211,31.0622252 C41.7292986,27.8921927 44.9566388,23.8165193 47.2214551,19.2879675 C49.1463871,15.3821379 50.5053463,11.8158803 50.901666,7.00429412 C50.901666,6.77779716 50.9583327,6.55141582 50.9583327,6.32503448 C50.9583327,6.38157201 50.9583327,6.38157201 50.9583327,6.32503448 C50.9583327,6.38157201 50.9583327,6.38157201 50.9583327,6.32503448 L50.9583327,6.32503448 Z" id="Fill-5" fill="#A7874D" mask="url(#mask-2)"></path>
                            </g>
                        </g>
                    </g>
                </g>
            </g>
        </g>
    </g>
</svg>