<?xml version="1.0" encoding="UTF-8"?>
<svg width="47px" height="45px" viewBox="0 0 47 45" version="1.1" xmlns="http://www.w3.org/2000/svg" xmlns:xlink="http://www.w3.org/1999/xlink">
    <!-- Generator: Sketch 53.2 (72643) - https://sketchapp.com -->
    <title>Fill 1</title>
    <desc>Created with Sketch.</desc>
    <g id="Desk" stroke="none" stroke-width="1" fill="none" fill-rule="evenodd" stroke-linecap="round" stroke-linejoin="round">
        <g id="Desktop-detalle-producto---slider-1" transform="translate(-699.000000, -921.000000)" fill="#A7874D" stroke="#A7874D" stroke-width="0.8">
            <g id="Group-12" transform="translate(690.000000, 584.000000)">
                <g id="Group-10" transform="translate(0.000000, 331.000000)">
                    <path d="M54.45945,29.0395 L54.99995,28.5 L54.45945,27.9605 C54.45945,27.96 54.45895,27.96 54.45895,27.9595 L48.25595,21.756 C47.95745,21.4575 47.47445,21.4575 47.17545,21.756 C46.87695,22.0545 46.87695,22.538 47.17545,22.8365 L52.07545,27.7365 L33.26345,27.7365 L33.26345,8.925 L38.16345,13.8245 C38.31245,13.9735 38.50795,14.0485 38.70345,14.0485 C38.89895,14.0485 39.09495,13.974 39.24345,13.8245 C39.54195,13.5265 39.54195,13.0425 39.24345,12.7445 L32.49945,6 L25.75545,12.7445 C25.45695,13.0425 25.45695,13.5265 25.75545,13.8245 C26.05395,14.123 26.53745,14.123 26.83595,13.8245 L31.73595,8.925 L31.73595,27.7365 L12.92495,27.7365 L17.82495,22.8365 C18.12345,22.538 18.12345,22.0545 17.82495,21.756 C17.52595,21.4575 17.04295,21.4575 16.74445,21.756 L10.54045,27.959 C10.54045,27.9595 10.53945,27.9595 10.53945,27.96 L9.99995,28.5 L10.53945,29.0395 C10.53945,29.04 10.54045,29.04 10.54045,29.0405 L16.74395,35.244 C16.89345,35.393 17.08845,35.467 17.28395,35.467 C17.47995,35.467 17.67495,35.393 17.82445,35.244 C18.12295,34.9455 18.12295,34.462 17.82445,34.1635 L12.92445,29.2635 L31.73545,29.2635 L31.73545,48.075 L26.83545,43.175 C26.53695,42.877 26.05345,42.877 25.75495,43.175 C25.45645,43.4735 25.45645,43.9575 25.75495,44.2555 L32.49945,51 L39.24345,44.2555 C39.54195,43.9575 39.54195,43.4735 39.24345,43.175 C38.94495,42.877 38.46195,42.877 38.16345,43.175 L33.26345,48.075 L33.26345,29.264 L52.07495,29.264 L47.17495,34.164 C46.87645,34.4625 46.87645,34.946 47.17495,35.2445 C47.32445,35.3935 47.51945,35.4675 47.71545,35.4675 C47.91095,35.4675 48.10595,35.3935 48.25545,35.2445 L54.45845,29.041 C54.45895,29.0405 54.45945,29.04 54.45945,29.0395" id="Fill-1"></path>
                </g>
            </g>
        </g>
    </g>
</svg>