<?xml version="1.0" encoding="UTF-8"?>
<svg width="27px" height="37px" viewBox="0 0 27 37" version="1.1" xmlns="http://www.w3.org/2000/svg" xmlns:xlink="http://www.w3.org/1999/xlink">
    <!-- Generator: Sketch 53.2 (72643) - https://sketchapp.com -->
    <title>Group 6</title>
    <desc>Created with Sketch.</desc>
    <defs>
        <polygon id="path-1" points="2.68211916e-05 0.0202814815 26.9871066 0.0202814815 26.9871066 36.9086237 2.68211916e-05 36.9086237"></polygon>
    </defs>
    <g id="Desk" stroke="none" stroke-width="1" fill="none" fill-rule="evenodd">
        <g id="Desktop-detalle-producto---slider-1" transform="translate(-1023.000000, -923.000000)">
            <g id="Group-12" transform="translate(690.000000, 584.000000)">
                <g id="Group-10" transform="translate(0.000000, 331.000000)">
                    <g id="Group-4" transform="translate(295.000000, 8.000000)">
                        <g id="Group-6" transform="translate(38.000000, 0.000000)">
                            <g id="Group-3" transform="translate(0.000000, 0.071077)">
                                <mask id="mask-2" fill="white">
                                    <use xlink:href="#path-1"></use>
                                </mask>
                                <g id="Clip-2"></g>
                                <path d="M13.1058447,2.93750765 C13.0156361,2.94417679 12.9321328,2.98446568 12.8676725,3.05197926 C12.5871228,3.35081136 5.92938775,10.5003077 3.57663278,19.1911052 L3.53729503,19.3140731 C3.08374868,20.5485941 2.85353344,21.8292509 2.85353344,23.1214188 C2.85353344,29.1159669 7.62645397,33.9927496 13.4936791,33.9927496 C19.3591162,33.9927496 24.1315897,29.1320459 24.1324838,23.1572311 L24.1333778,23.1124657 C24.1333778,23.1124657 24.1377586,22.8766706 24.1022652,22.4852928 L24.0992255,22.4407101 C24.0563116,21.7267472 23.9455401,21.0165299 23.7796957,20.3857941 L23.7653017,20.3254064 C23.0565964,17.1040311 20.7681228,10.575404 13.4013248,3.04759407 C13.3746825,3.0211916 13.3067354,2.95185086 13.1058447,2.93750765 M13.4936791,36.9086237 C6.05321225,36.9086237 2.68211916e-05,30.7235027 2.68211916e-05,23.1214188 C2.68211916e-05,21.4999965 0.283705629,19.8960237 0.843016887,18.3510681 C3.40014934,8.98613975 10.5097321,1.3509842 10.8121858,1.02986074 C11.4119076,0.393734815 12.2488182,0.0265669136 13.1106725,0.0202632099 L13.1408911,0.0202632099 L13.1706626,0.0211767901 C14.0552255,0.0534261728 14.832593,0.387065679 15.4187255,0.986465679 C23.2724175,9.01172 25.7585632,16.1173644 26.5426361,19.6571225 C26.7522884,20.4609817 26.891848,21.3537323 26.9466526,22.2420064 C26.9899242,22.7371669 26.9881361,23.0718114 26.9864374,23.1742237 C26.9772288,30.7489916 20.9274407,36.9086237 13.4936791,36.9086237" id="Fill-1" fill="#A7874D" mask="url(#mask-2)"></path>
                            </g>
                            <path d="M13.8679599,32.4388501 C13.3426222,32.4388501 12.8843374,32.0439094 12.8095063,31.4964921 C12.7276123,30.8988279 13.1360096,30.3460205 13.721695,30.2627933 C16.66845,29.8428205 19.1117712,27.7937514 20.0984334,24.9154254 C20.2941387,24.3460822 20.9043209,24.0455143 21.4619334,24.2454057 C22.0200825,24.4444748 22.3137745,25.0683588 22.1180692,25.6387069 C20.8661454,29.2930279 17.76195,31.8953612 14.0171752,32.428618 C13.9672877,32.4362007 13.9169533,32.4388501 13.8679599,32.4388501" id="Fill-4" fill="#A7874D"></path>
                        </g>
                    </g>
                </g>
            </g>
        </g>
    </g>
</svg>