<?xml version="1.0" encoding="UTF-8"?>
<svg width="29px" height="29px" viewBox="0 0 29 29" version="1.1" xmlns="http://www.w3.org/2000/svg" xmlns:xlink="http://www.w3.org/1999/xlink">
    <!-- Generator: Sketch 53.2 (72643) - https://sketchapp.com -->
    <title>noun_call_447674</title>
    <desc>Created with Sketch.</desc>
    <g id="Desk" stroke="none" stroke-width="1" fill="none" fill-rule="evenodd">
        <g id="Desktop-contacto" transform="translate(-275.000000, -446.000000)" fill="#A7874D" fill-rule="nonzero">
            <g id="Group-10" transform="translate(275.000000, 446.000000)">
                <g id="noun_call_447674">
                    <path d="M23.3432099,29 C17.7580247,29 11.9938272,26.39 7.51851852,21.85875 C2.79259259,17.07375 0.214814815,11.0925 0.358024691,5.32875 L0.358024691,5.11125 L0.501234568,4.93 C0.895061728,4.4225 1.28888889,3.9875 1.68271605,3.5525 C3.18641975,2.03 4.94074074,0.87 6.90987654,0.10875 C7.08888889,0.03625 7.3037037,0 7.51851852,0 C8.19876543,0 9.34444444,0.3625 9.55925926,1.05125 C10.2753086,3.00875 11.1345679,5.5825 11.7790123,8.01125 C11.8864198,8.4825 11.7790123,9.86 11.0987654,10.25875 L8.80740741,11.70875 C8.66419753,11.8175 8.59259259,11.9625 8.55679012,12.1075 C8.48518519,12.50625 8.62839506,13.01375 8.91481481,13.44875 C9.80987654,14.7175 10.8481481,15.95 12.0296296,17.14625 C13.2111111,18.30625 14.4283951,19.3575 15.645679,20.26375 C16.254321,20.735 17.1135802,20.77125 17.3283951,20.40875 L18.7962963,18.08875 C19.154321,17.50875 20.2641975,17.36375 20.6580247,17.36375 C20.8012346,17.36375 20.908642,17.36375 21.0160494,17.4 C23.9518519,18.0525 25.7061728,18.6325 27.9617284,19.68375 C28.6419753,20.01 29.1432099,21.5325 28.8209877,22.36625 C28.0691358,24.36 26.9234568,26.13625 25.4197531,27.65875 C24.9901235,28.09375 24.5246914,28.4925 24.0592593,28.855 L23.9518519,29 L23.3432099,29 L23.3432099,29 Z M1.64691358,5.5825 C1.57530864,10.9475 4.00987654,16.49375 8.34197531,20.84375 L8.44938272,20.9525 C12.6740741,25.23 18.1160494,27.695 23.3432099,27.695 L23.5222222,27.695 C23.9160494,27.36875 24.2740741,27.0425 24.5962963,26.71625 C25.9567901,25.33875 26.9950617,23.7075 27.7111111,21.85875 C27.782716,21.64125 27.6037037,20.9525 27.4246914,20.8075 C25.3481481,19.865 23.6654321,19.32125 20.8012346,18.66875 C20.4074074,18.66875 20.0135802,18.7775 19.9061728,18.85 L18.5098765,21.0975 C17.9012346,22.1125 16.182716,22.22125 14.9654321,21.315 C13.6765432,20.3725 12.4234568,19.285 11.2061728,18.0525 C9.98888889,16.82 8.91481481,15.515 7.98395062,14.21 C7.44691358,13.485 7.23209877,12.615 7.37530864,11.85375 C7.48271605,11.31 7.7691358,10.875 8.19876543,10.585 L10.4901235,9.135 C10.5259259,9.02625 10.6333333,8.4825 10.5975309,8.30125 C9.98888889,5.90875 9.09382716,3.37125 8.41358025,1.45 C8.34197531,1.41375 7.91234568,1.26875 7.59012346,1.26875 C7.48271605,1.26875 7.44691358,1.26875 7.44691358,1.26875 C5.62098765,1.99375 4.00987654,3.045 2.64938272,4.4225 C2.29135802,4.82125 1.9691358,5.18375 1.64691358,5.5825 L1.64691358,5.5825 Z" id="Shape"></path>
                </g>
            </g>
        </g>
    </g>
</svg>