<?xml version="1.0" encoding="UTF-8"?>
<svg width="29px" height="34px" viewBox="0 0 29 34" version="1.1" xmlns="http://www.w3.org/2000/svg" xmlns:xlink="http://www.w3.org/1999/xlink">
    <!-- Generator: Sketch 53.2 (72643) - https://sketchapp.com -->
    <title>noun_GPS_447682</title>
    <desc>Created with Sketch.</desc>
    <g id="Desk" stroke="none" stroke-width="1" fill="none" fill-rule="evenodd">
        <g id="Desktop-contacto" transform="translate(-276.000000, -541.000000)" fill="#A7874D" fill-rule="nonzero">
            <g id="Group-10" transform="translate(275.000000, 446.000000)">
                <g id="noun_GPS_447682" transform="translate(1.000000, 95.000000)">
                    <g id="Group">
                        <path d="M14.5,33.89375 C14.31875,33.89375 14.17375,33.8229167 14.02875,33.7166667 C13.44875,33.2208333 0,21.9583333 0,14.2729167 C0,6.44583333 6.48875,0.10625 14.5,0.10625 C22.51125,0.10625 29,6.44583333 29,14.2729167 C29,21.9583333 15.55125,33.2208333 14.97125,33.7166667 C14.82625,33.8229167 14.68125,33.89375 14.5,33.89375 L14.5,33.89375 Z M14.5,1.55833333 C7.3225,1.55833333 1.48625,7.26041667 1.48625,14.2729167 C1.48625,20.50625 12.1075,30.1041667 14.5,32.19375 C16.8925,30.1041667 27.51375,20.50625 27.51375,14.2729167 C27.51375,7.26041667 21.6775,1.55833333 14.5,1.55833333 L14.5,1.55833333 Z" id="Shape"></path>
                        <path d="M14.5,20.825 C10.8025,20.825 7.79375,17.8854167 7.79375,14.2729167 C7.79375,10.6604167 10.8025,7.72083333 14.5,7.72083333 C18.1975,7.72083333 21.20625,10.6604167 21.20625,14.2729167 C21.20625,17.8854167 18.1975,20.825 14.5,20.825 L14.5,20.825 Z M14.5,9.20833333 C11.63625,9.20833333 9.28,11.475 9.28,14.3083333 C9.28,17.10625 11.6,19.4083333 14.5,19.4083333 C17.36375,19.4083333 19.72,17.1416667 19.72,14.3083333 C19.72,11.475 17.36375,9.20833333 14.5,9.20833333 L14.5,9.20833333 Z" id="Shape"></path>
                    </g>
                </g>
            </g>
        </g>
    </g>
</svg>