<?xml version="1.0" encoding="UTF-8"?>
<svg width="73px" height="51px" viewBox="0 0 73 51" version="1.1" xmlns="http://www.w3.org/2000/svg" xmlns:xlink="http://www.w3.org/1999/xlink">
    <!-- Generator: Sketch 53.2 (72643) - https://sketchapp.com -->
    <title>Fill 1</title>
    <desc>Created with Sketch.</desc>
    <g id="Desk" stroke="none" stroke-width="1" fill="none" fill-rule="evenodd">
        <g id="Desktop-detalle-producto---slider-1" transform="translate(-727.000000, -1309.000000)" fill="#A7874D" stroke="#A7874D" stroke-width="0.4">
            <g id="Group-11" transform="translate(690.000000, 1121.000000)">
                <g id="Group-2-Copy-2" transform="translate(0.000000, 159.000000)">
                    <g id="Group">
                        <g id="Group-3" transform="translate(38.000000, 30.000000)">
                            <path d="M6.41693468,11.0037817 C6.71876021,10.911326 6.93296872,10.6451976 6.95713894,10.3327664 C7.15321979,7.95364404 9.15194532,6.11861651 11.5586943,6.10872661 C11.759156,6.11112416 11.9591645,6.12655841 12.1575113,6.1554789 C12.4862262,6.19983364 12.8066326,6.02990703 12.952107,5.73410887 C14.4334389,2.69805688 18.1154687,1.4282526 21.176173,2.89765321 C22.3215389,3.44759205 23.2668964,4.33603547 23.8824815,5.4408581 C24.0744836,5.78250948 24.4954985,5.92546361 24.8583538,5.77217003 C27.5938177,4.61565015 30.75649,5.87781223 31.9222496,8.59124343 C32.1187836,9.04842691 32.249907,9.53063486 32.3119943,10.0237817 C32.384656,10.4147327 32.7299879,10.6973443 33.1306091,10.6940477 C35.1432326,10.6940477 36.2679028,11.7593107 37.0120432,14.3715951 C37.0195964,14.398118 37.0286602,14.4243413 37.0390836,14.4499651 C37.2401496,14.937118 37.3590368,15.453641 37.3912134,15.9791547 L34.6510666,17.6099407 C34.5551411,15.927008 33.7116006,14.3730936 32.3480985,13.3673199 C32.1399326,10.1480049 29.4488815,7.64121284 26.1967794,7.63716697 C25.5740943,7.63611804 24.9550347,7.72962263 24.3609006,7.9143841 C22.8194453,4.91069908 19.1150581,3.71536881 16.0869836,5.24440856 C15.0213794,5.78250948 14.1370517,6.61700795 13.5418602,7.64570826 C10.8798134,7.79165933 8.61249638,9.61514862 7.91790489,12.1683933 C4.90886447,13.7354942 3.75035596,17.4253291 5.33003043,20.4101333 C5.85497723,21.4019713 6.64489,22.2312251 7.61320915,22.8073872 C6.13369,24.5363229 5.75467085,26.9410691 6.63144532,29.0353321 L5.70376234,29.0353321 C5.4128134,29.0407266 5.12503681,29.0976685 4.85417936,29.2034606 C3.66651553,27.7232709 3.52406234,25.6690171 4.49615809,24.0415278 C4.69359851,23.7069193 4.60719,23.278956 4.29524319,23.0454942 C1.24330064,20.7600263 0.636930426,16.4532709 2.94095596,13.4259101 C3.81516234,12.2771823 5.03107511,11.4299468 6.41693468,11.0037817 L6.41693468,11.0037817 Z M44.3244389,17.5835676 L41.7572602,29.0353321 L36.4928368,29.0353321 L39.1938581,20.5509896 L44.3244389,17.5835676 Z M49.8074517,18.9429804 L47.8999687,29.0353321 L43.3363304,29.0353321 L45.0717517,21.2891364 L49.8074517,18.9429804 Z M49.8511091,15.4197755 C51.9818645,6.61251254 57.9165581,0.451399388 63.0823368,1.67789786 C65.5111411,2.25630765 67.4325219,4.41800183 68.4941985,7.76513639 C69.6048198,11.7264942 69.6332198,15.9094758 68.5762262,19.885219 C67.7526262,23.0384514 66.6181368,26.1038734 65.189073,29.0365309 L65.1800091,29.0353321 L56.4593964,29.0353321 L57.0899368,26.5331853 L61.8478432,25.1848612 L61.4248645,23.7153107 L57.5213751,24.8216318 L58.6387943,20.3878061 L64.961873,18.2971394 L64.4742389,16.8470691 L59.0817134,18.6302495 L60.5251283,12.903693 L66.4454709,11.4354911 L66.0721921,9.95260428 L60.9485602,11.223008 L62.3833645,5.53001713 L60.8891921,5.15914557 L59.5681389,10.4009468 L56.8353943,7.14806606 L55.6512049,8.12641774 L59.1051283,12.2377725 L57.5843687,18.2722648 L54.5588623,14.0711517 L53.3053347,14.9592954 L57.0934113,20.2198275 L55.9802219,24.6368703 L52.9358326,21.6171517 L51.8465113,22.6976991 L55.5445538,26.365956 L54.8717155,29.0353321 L49.4669538,29.0353321 L51.6072262,17.7127358 C51.6859304,17.2981089 51.4108432,16.8987664 50.9928496,16.8208459 C50.8274347,16.7899774 50.6564304,16.8136532 50.5056687,16.8884269 L49.4411219,17.4158887 C49.5669581,16.6996196 49.7030666,16.0277052 49.8511091,15.4197755 L49.8511091,15.4197755 Z M26.1362028,19.6319774 C25.7315028,19.4217419 25.3147177,19.2359315 24.8876602,19.0754453 C24.8109198,19.0459254 24.7319134,19.0183535 24.652907,18.9907817 L24.4128666,18.9053688 C24.099107,18.8094667 23.7854985,18.7216563 23.4521006,18.6389407 C20.3773474,17.931063 17.1445815,18.495537 14.4982453,20.2019957 C14.1962687,20.3966471 13.9103049,20.6092801 13.6306857,20.8283566 C12.241956,19.8543505 11.9121836,17.9479957 12.8940985,16.5704514 C13.4717666,15.7602281 14.4103262,15.2786196 15.4108219,15.2793688 C15.8362177,15.2795187 16.1810964,14.9375676 16.1812474,14.5155982 L16.1812474,14.5151486 C16.1780751,12.830118 17.5526049,11.4614147 19.2513177,11.4582679 C20.7470006,11.4555706 22.0278709,12.5203841 22.2866432,13.9815431 C22.3597581,14.397219 22.7585666,14.675485 23.1776177,14.6031089 C23.1912134,14.6007113 23.2046581,14.5980141 23.2181028,14.5950171 C23.4368432,14.5437694 23.6607198,14.5169468 23.8855028,14.5151486 C25.5866326,14.5169468 26.9653921,15.8846012 26.9672049,17.5720294 C26.9649389,18.3386471 26.6676453,19.0754453 26.1362028,19.6319774 L26.1362028,19.6319774 Z M27.7075687,29.0353321 L13.8998815,29.0353321 C14.31999,25.5919957 17.3081836,23.0285615 20.8038006,23.1127755 C24.2992666,23.0285615 27.2874602,25.5919957 27.7075687,29.0353321 L27.7075687,29.0353321 Z M29.2487219,29.0353321 C28.8286134,24.7444606 25.1488496,21.4978734 20.8038006,21.5841853 C16.4586006,21.4978734 12.7789879,24.7444606 12.3587283,29.0353321 L10.8388751,29.0353321 C10.852773,28.858063 10.8506581,28.6834911 10.8739219,28.5059223 C10.8841943,28.4704086 10.8918985,28.4341456 10.8965815,28.3975829 C11.6035602,23.5068734 15.822924,19.8727817 20.8038006,19.8646899 C21.5734709,19.8648398 22.340573,19.9520508 23.0903028,20.1248245 C23.3851794,20.1979498 23.6717474,20.2782679 23.9080113,20.3482465 C23.9847517,20.3777664 24.0637581,20.4054881 24.1427645,20.4330599 L24.3383921,20.5034881 C27.978124,21.8606532 30.4931857,25.1892067 30.7853432,29.0353321 L29.2487219,29.0353321 Z M38.7177049,16.9724911 L34.8775113,29.0353321 L32.3261943,29.0353321 C32.1644049,26.6048122 31.227356,24.288326 29.6508538,22.4207817 C29.6408836,22.4090936 29.630007,22.3984544 29.6200368,22.3867664 L38.7177049,16.9724911 Z M7.7065666,26.7426716 C7.70384745,25.361381 8.33272617,24.0536654 9.41660915,23.1865003 C9.74713681,22.9203719 9.79744106,22.4389131 9.52930277,22.1111976 C9.44213894,22.0048061 9.32793468,21.923589 9.19847298,21.8760875 C6.80380915,21.0086226 5.57127936,18.379855 6.44563681,16.0044789 C6.87390277,14.8410661 7.75898574,13.8994269 8.89906447,13.3942924 C9.12686872,13.2931456 9.29122617,13.088904 9.33986872,12.8460018 C9.77704745,10.7060355 11.6732006,9.16755535 13.8745028,9.16680612 L13.8766177,9.16680612 C13.8977666,9.16860428 13.9873474,9.17309969 14.0083453,9.17309969 C14.3063943,9.17309969 14.5777049,9.00272355 14.7050517,8.73539633 C15.7893879,6.4494789 18.5366347,5.46842997 20.8411134,6.54403242 C21.9520368,7.06265321 22.8087198,7.9993474 23.221124,9.14657676 C23.3643326,9.54457064 23.80559,9.75210887 24.2069666,9.61020367 C24.2282666,9.60256147 24.2492645,9.59402018 24.2699602,9.58472966 C24.8737623,9.30751254 25.5313432,9.16455841 26.1967794,9.16560734 C28.6990006,9.16860428 30.7457645,11.1437388 30.8176709,13.624907 C30.7592091,13.9320936 30.8954687,14.2439254 31.1616432,14.4114544 C32.3885836,15.1777725 33.1324219,16.515907 33.1306091,17.9541394 C33.1295517,18.1519376 33.1130857,18.3491364 33.0812113,18.5442373 L28.5118326,21.2639621 C28.1853836,20.9728092 27.8426198,20.7002373 27.4853538,20.4474453 C28.1501857,19.6346746 28.5115304,18.6188612 28.508056,17.5720294 C28.5051857,15.0408122 26.437273,12.9894055 23.8855028,12.9867083 C23.7966772,12.9867083 23.7072474,12.9897052 23.616156,12.9956991 C22.7727666,10.6081853 20.1379113,9.3509682 17.7310113,10.1875645 C16.1239943,10.7461945 14.9571772,12.1367755 14.6952326,13.8057725 C12.1771496,14.1931272 10.4523028,16.5320905 10.8426517,19.0300416 C11.0166772,20.1428061 11.5981219,21.1529254 12.4759538,21.8672465 C10.8183304,23.5668122 9.73807298,25.7379468 9.38654745,28.0767602 C9.37582191,28.1130232 9.36781553,28.1500355 9.3625283,28.1874972 C9.32219426,28.4702587 9.29394532,28.7533199 9.27476021,29.0353321 L8.34133681,29.0353321 C7.92651553,28.3412404 7.70732191,27.5495982 7.7065666,26.7426716 L7.7065666,26.7426716 Z M66.0218879,31.8560538 L63.6263177,37.1368153 C61.6146006,41.5713902 59.4197943,44.3197358 54.702524,44.3197358 L16.1812474,44.3197358 C11.4638262,44.3197358 9.26917085,41.5713902 7.25730277,37.1372648 L4.86188362,31.8560538 C4.65250915,31.3945248 4.85991979,30.8520783 5.32504532,30.6443902 C5.44423468,30.5913443 5.57324319,30.5637725 5.70376234,30.5637725 L65.1800091,30.5637725 C65.6901517,30.5640722 66.1034623,30.9743535 66.1031602,31.4803872 C66.1030091,31.6100049 66.0755155,31.7379743 66.0218879,31.8560538 L66.0218879,31.8560538 Z M17.7220985,47.3766165 L53.161673,47.3766165 L53.161673,45.8481761 L17.7220985,45.8481761 L17.7220985,47.3766165 Z M2.86059,23.8557174 C1.91160702,25.9312495 2.21313043,28.3590722 3.64128787,30.1443505 L3.63479213,30.1521425 C3.17888149,30.8483321 3.11165809,31.7265859 3.45638574,32.4830141 L5.85195596,37.7645248 C8.05416447,42.6167235 10.6527645,45.8481761 16.1812474,45.8481761 L16.1812474,48.1408367 C16.1810964,48.5628061 16.525824,48.9050569 16.9512198,48.9052067 L16.951673,48.9052067 L53.9320985,48.9052067 C54.3574943,48.9052067 54.702373,48.5631058 54.702524,48.1412862 L54.702524,48.1408367 L54.702524,45.8481761 C60.230856,45.8481761 62.829607,42.6167235 65.0318155,37.7642251 L67.4272347,32.4830141 C67.9172857,31.4448734 67.5911389,30.2077358 66.651673,29.5404667 C68.0944836,26.5588092 69.2410581,23.444537 70.0747794,20.2423046 C71.1964283,15.9971364 71.1580581,11.5321425 69.9634453,7.30660428 C68.7334836,3.42691315 66.417524,0.900341284 63.4420198,0.192014067 C57.4553602,-1.23378104 50.6818091,5.43756147 48.3531602,15.0619407 C48.12309,16.0046287 47.9199091,17.08143 47.744373,18.256381 L45.5021326,19.3671976 L46.2097155,16.2088703 C46.3017134,15.7967908 46.0394666,15.3887572 45.62389,15.2975003 C45.434607,15.2558428 45.2365623,15.2867113 45.0690326,15.3835125 L39.8842198,18.3824024 L40.7987602,15.5096838 C40.9270134,15.1073443 40.7022304,14.6780324 40.296624,14.5508122 C40.0861921,14.4847297 39.8571794,14.5114024 39.6678964,14.6242373 L38.8349304,15.1199315 C38.7566794,14.7086012 38.6388496,14.3056624 38.4829517,13.9166593 C37.9306623,11.9938214 36.84119,9.50231376 33.7301815,9.19662569 C32.8996326,5.49165627 29.1984177,3.15613945 25.4633645,3.97999878 C25.2669815,4.02330459 25.0725623,4.07515168 24.8808623,4.13524037 C22.5105198,0.636160856 17.7295006,-0.294389602 14.2020091,2.05671131 C13.2240219,2.70869602 12.4099389,3.57451254 11.8227538,4.58792844 C11.7316623,4.58253394 11.6451028,4.58028624 11.5586943,4.58028624 C8.54527298,4.59377248 5.97960489,6.75816391 5.48245383,9.7064055 C1.10749426,11.3418367 -1.10256957,16.1859437 0.546141064,20.5258153 C1.0325666,21.8062587 1.82716234,22.9492924 2.86059,23.8557174 L2.86059,23.8557174 Z" id="Fill-1"></path>
                        </g>
                    </g>
                </g>
            </g>
        </g>
    </g>
</svg>