<?xml version="1.0" encoding="UTF-8"?>
<svg width="49px" height="49px" viewBox="0 0 49 49" version="1.1" xmlns="http://www.w3.org/2000/svg" xmlns:xlink="http://www.w3.org/1999/xlink">
    <!-- Generator: Sketch 53.2 (72643) - https://sketchapp.com -->
    <title>Group 8</title>
    <desc>Created with Sketch.</desc>
    <defs>
        <polygon id="path-1" points="0 0.0874490722 24.3659655 0.0874490722 24.3659655 28.5875714 0 28.5875714"></polygon>
    </defs>
    <g id="Desk" stroke="none" stroke-width="1" fill="none" fill-rule="evenodd">
        <g id="Desktop-detalle-producto---slider-1" transform="translate(-802.000000, -914.000000)">
            <g id="Group-12" transform="translate(690.000000, 584.000000)">
                <g id="Group-10" transform="translate(0.000000, 331.000000)">
                    <g id="Group-5-Copy-2" transform="translate(85.000000, 0.000000)">
                        <g id="Group-8" transform="translate(27.000000, 0.000000)">
                            <path d="M18.9323156,7.71382412 C18.9469406,7.60325299 18.9645656,7.49423237 18.9843469,7.38598701 C23.2711594,6.61295814 27.4810031,9.12954165 27.5286281,9.15832309 L27.5286281,9.15754784 C27.8786906,9.37103443 28.3344094,9.35058701 28.6682531,9.0697499 C29.0966906,8.70935196 29.1611906,8.05823237 28.8117844,7.61536639 C28.7355656,7.51845918 28.6448156,7.44044887 28.5459094,7.37988186 L28.5466594,7.3791066 C28.3415344,7.25341794 24.3470344,4.85118495 19.7950031,5.19791897 C20.1736594,4.57403031 20.6650969,4.02892722 21.2685656,3.56871485 C22.5385969,2.60041794 24.2680031,2.06665299 26.1392531,2.06665299 C26.6307844,2.06665299 27.1338469,2.10376845 27.6340031,2.17567361 C29.1032531,2.38693134 30.5013469,3.24242825 31.7882531,4.71948804 C32.9351906,6.03384062 33.9884719,7.82129423 34.9193156,10.0319416 C35.4869719,11.3787581 35.9388469,12.7194695 36.2867531,13.9005746 C33.7393781,13.0450777 30.9107531,12.5953313 28.0581281,12.5953313 C27.1236281,12.5953313 26.1685969,12.6422344 25.2201281,12.7361375 C24.7704094,12.7808118 24.3331594,12.8028097 23.9193469,12.8028097 C21.4005656,12.8028097 20.2060031,12.0132097 19.6471594,11.350752 C18.9601594,10.5369252 18.7198781,9.3127932 18.9323156,7.71382412 M10.4165344,17.3393272 C10.5784406,17.2023004 10.6882219,17.0243788 10.7431594,16.8321148 C12.0343781,12.3358138 14.0997844,9.38847773 16.8858469,8.05832928 C16.5467531,12.5833148 19.3767844,14.870519 23.9191594,14.870519 C24.3974719,14.870519 24.8948156,14.8455169 25.4096906,14.7940592 C26.3325656,14.7031602 27.2165344,14.6623623 28.0580344,14.6623623 C35.0876906,14.6623623 39.2156906,17.4976736 39.2156906,17.4976736 C39.2156906,17.4976736 36.4962844,1.36349423 27.9094406,0.127927216 C27.3139406,0.0423581443 26.7215344,9.69072163e-06 26.1392531,9.69072163e-06 C22.1709094,-0.00076556701 18.6509719,1.97216845 17.3699719,5.66065093 C17.1129094,5.7408901 16.8558469,5.83246742 16.5994406,5.93625505 C12.9871594,7.40120144 10.3709719,10.8724179 8.82709688,16.2408839 C8.73625313,16.5573829 8.79269063,16.9154551 9.00944062,17.1902839 C9.35819063,17.633053 9.98809688,17.6997252 10.4165344,17.3393272" id="Fill-1" stroke="#A7874D" stroke-width="0.3" fill="#A7874D"></path>
                            <path d="M43.9448438,42.0655427 C42.5614688,43.9007715 40.0565625,44.8311777 36.5007188,44.8311777 C34.1247187,44.8311777 31.7085,44.4064334 29.7945937,43.9477715 C31.8256875,42.0595344 34.3423125,39.0630664 36.30375,34.6234561 C36.9555938,33.1494004 37.7415,31.9767262 38.5764375,31.2317035 C39.2993437,30.586786 40.0250625,30.2731942 40.7934375,30.2731942 C41.6730938,30.2731942 42.6361875,30.6881509 43.6562813,31.5065324 C43.7404688,31.5755303 43.82325,31.6459819 43.903875,31.7171118 C42.4077188,35.941588 38.1955313,38.4511942 38.14725,38.4792004 L38.148,38.4799757 C37.7942813,38.6867757 37.5833438,39.1045427 37.6514063,39.5444045 C37.7393438,40.1078231 38.2527187,40.4908004 38.7976875,40.3999014 C38.9177813,40.3802293 39.0284063,40.3378808 39.1287188,40.2795427 L39.1294688,40.2803179 C39.33675,40.1600561 43.3430625,37.7872829 45.32925,33.5415839 C45.7532813,34.3699468 45.9803438,35.2934726 45.9987188,36.2890973 C46.0344375,38.2097014 45.3049688,40.261421 43.9448438,42.0655427 M46.1567813,31.1355715 C46.2175313,30.8644252 46.2695625,30.588821 46.310625,30.3072087 C46.89075,26.3408932 45.2889375,22.2618746 41.5625625,18.1947757 C41.3428125,17.9556087 41.0161875,17.8291447 40.67775,17.8851571 C40.132125,17.9760561 39.7615313,18.5068169 39.8492813,19.0700416 C39.8830313,19.2835282 39.9767813,19.4713344 40.1108438,19.6173736 C43.2316875,23.0212396 44.6685,26.3440911 44.3901563,29.5023942 C43.1466562,28.6213138 41.9374688,28.2063571 40.7934375,28.2063571 C38.254875,28.2063571 36.0385313,30.2475138 34.4843438,33.7648581 C30.8830313,41.9162087 25.3168125,44.7720643 25.3168125,44.7720643 C25.3168125,44.7720643 30.9335625,46.8984994 36.5007188,46.8984994 C39.9944063,46.8984994 43.4675625,46.061221 45.5224688,43.3357056 C48.4125937,39.5020561 48.965625,34.5652148 46.1567813,31.1355715" id="Fill-3" stroke="#A7874D" stroke-width="0.3" fill="#A7874D"></path>
                            <g id="Group-7" transform="translate(0.000000, 18.367794)">
                                <mask id="mask-2" fill="white">
                                    <use xlink:href="#path-1"></use>
                                </mask>
                                <g id="Clip-6"></g>
                                <path d="M11.0983781,23.2540882 C8.30790937,19.8033192 8.31081562,14.7769357 8.31156563,14.7195666 L8.31081562,14.7195666 C8.31447187,14.2993769 8.06987812,13.9017666 7.66703437,13.743614 C7.15140937,13.5407872 6.57353437,13.8087357 6.37722187,14.3417254 C6.33400312,14.45908 6.31347187,14.5794388 6.31272187,14.6984408 L6.31122187,14.6984408 C6.30906562,14.9444882 6.29359687,19.7193006 8.85859687,23.6204944 C7.59587812,23.5712656 6.35228437,23.0739377 5.25072187,22.1744449 C4.04744062,21.1918058 3.06447187,19.78888 2.40831562,18.1164553 C1.85097188,16.6955047 1.86850313,15.0155212 2.46250313,13.1251522 C2.99050312,11.4420676 3.96100312,9.60557897 5.34737812,7.66656247 C6.19262812,6.48487588 7.09056562,5.40969031 7.90572187,4.5071934 C8.47262812,7.26992124 9.72428437,11.0211996 12.4635656,14.9973996 C13.9407844,17.142247 14.5326281,19.11208 14.1305344,20.5452408 C13.8250969,21.6300202 12.9067219,22.5021852 11.3986594,23.1375089 C11.2983469,23.179179 11.1986906,23.217748 11.0983781,23.2540882 M23.7215344,25.9478181 C23.5259719,25.8713584 23.3215969,25.8613769 23.1326906,25.9084738 C18.7206281,27.0009089 15.2182219,26.6253934 12.7111594,24.7962697 C17.0880656,22.6308779 17.2404094,18.3677357 14.0924719,13.7981728 C9.06447187,6.49844289 9.45484687,0.0874490722 9.45484687,0.0874490722 C9.45484687,0.0874490722 -2.70321563,10.5889934 0.554596875,18.8932635 C2.12781562,22.9027996 5.35994062,25.6934367 9.06822187,25.6934367 C9.52600312,25.6934367 9.99034687,25.650313 10.4598469,25.5623212 C10.6561594,25.751581 10.8611906,25.9363831 11.0765344,26.1136264 C13.0745344,27.7618243 15.5823469,28.5884429 18.5684719,28.5875707 C20.1160031,28.5875707 21.7939406,28.3649748 23.5935656,27.9205584 C23.5957219,27.9197831 23.5987219,27.9191047 23.5987219,27.9191047 C23.9085656,27.8418697 24.1781906,27.6132656 24.3004406,27.281746 C24.4964719,26.7480779 24.2379094,26.1514202 23.7215344,25.9478181" id="Fill-5" stroke="#A7874D" stroke-width="0.3" fill="#A7874D" mask="url(#mask-2)"></path>
                            </g>
                        </g>
                    </g>
                </g>
            </g>
        </g>
    </g>
</svg>