<?xml version="1.0" encoding="UTF-8"?>
<svg width="29px" height="21px" viewBox="0 0 29 21" version="1.1" xmlns="http://www.w3.org/2000/svg" xmlns:xlink="http://www.w3.org/1999/xlink">
    <!-- Generator: Sketch 53.2 (72643) - https://sketchapp.com -->
    <title>noun_Mail_447683</title>
    <desc>Created with Sketch.</desc>
    <g id="Desk" stroke="none" stroke-width="1" fill="none" fill-rule="evenodd">
        <g id="Desktop-contacto" transform="translate(-275.000000, -498.000000)" fill="#A7874D" fill-rule="nonzero">
            <g id="Group-10" transform="translate(275.000000, 446.000000)">
                <g id="noun_Mail_447683" transform="translate(0.000000, 52.000000)">
                    <path d="M26.93375,0.217241379 C26.8975,0.217241379 26.8975,0.10862069 26.86125,0.10862069 C26.7525,0.10862069 26.64375,0 26.49875,0 L2.465,0 C2.35625,0 2.2475,0.10862069 2.1025,0.10862069 C2.06625,0.10862069 2.06625,0.144827586 2.03,0.144827586 C0.90625,0.362068966 0,1.41206897 0,2.64310345 L0,18.3568966 C0,19.587931 0.90625,20.6017241 2.06625,20.7827586 C2.1025,20.7827586 2.1025,20.8913793 2.13875,20.8913793 C2.2475,20.8913793 2.35625,21 2.465,21 L26.535,21 C26.64375,21 26.7525,20.8913793 26.86125,20.8913793 C26.8975,20.8913793 26.8975,20.8551724 26.93375,20.8551724 C28.09375,20.6741379 29,19.6241379 29,18.3931034 L29,2.64310345 C29,1.41206897 28.09375,0.398275862 26.93375,0.217241379 Z M19.53875,10.5 L27.55,3.36724138 L27.55,17.6327586 L19.53875,10.5 Z M26.535,1.44827586 C26.86125,1.44827586 27.15125,1.62931034 27.36875,1.84655172 L14.5,13.3241379 L1.63125,1.84655172 L1.63125,1.81034483 C1.84875,1.59310345 2.13875,1.41206897 2.465,1.41206897 L26.535,1.41206897 L26.535,1.44827586 Z M1.45,3.36724138 L9.46125,10.5 L1.45,17.6327586 L1.45,3.36724138 Z M2.465,19.5517241 C2.13875,19.5517241 1.84875,19.3706897 1.63125,19.1534483 L1.63125,19.1534483 L10.33125,11.4051724 L14.065,14.7362069 C14.17375,14.8448276 14.355,14.9172414 14.5,14.9172414 C14.645,14.9172414 14.82625,14.8448276 14.935,14.7362069 L18.66875,11.4051724 L27.36875,19.1896552 C27.15125,19.4068966 26.86125,19.587931 26.535,19.587931 L2.465,19.5517241 L2.465,19.5517241 Z" id="Shape"></path>
                </g>
            </g>
        </g>
    </g>
</svg>