<?xml version="1.0" encoding="UTF-8"?>
<svg width="40px" height="40px" viewBox="0 0 40 40" version="1.1" xmlns="http://www.w3.org/2000/svg" xmlns:xlink="http://www.w3.org/1999/xlink">
    <!-- Generator: Sketch 53.2 (72643) - https://sketchapp.com -->
    <title>Group 7</title>
    <desc>Created with Sketch.</desc>
    <defs>
        <polygon id="path-1" points="0.00966530555 0.0327739308 18.660898 0.0327739308 18.660898 18.6462159 0.00966530555 18.6462159"></polygon>
        <polygon id="path-3" points="0 0.042509165 18.6512408 0.042509165 18.6512408 18.6557678 0 18.6557678"></polygon>
    </defs>
    <g id="Desk" stroke="none" stroke-width="1" fill="none" fill-rule="evenodd">
        <g id="Desktop-detalle-producto---slider-1" transform="translate(-916.000000, -921.000000)">
            <g id="Group-12" transform="translate(690.000000, 584.000000)">
                <g id="Group-10" transform="translate(0.000000, 331.000000)">
                    <g id="Group-5" transform="translate(190.000000, 6.000000)">
                        <g id="Group-7" transform="translate(36.000000, 0.000000)">
                            <g id="Group-3" transform="translate(21.306122, 0.048717)">
                                <mask id="mask-2" fill="white">
                                    <use xlink:href="#path-1"></use>
                                </mask>
                                <g id="Clip-2"></g>
                                <path d="M18.2707265,2.30226477 L4.5579102,15.9870713 L14.6642776,15.9870713 C15.4003592,15.9870713 15.9966041,16.5827536 15.9966041,17.3166843 C15.9966041,18.0505336 15.4003592,18.6462159 14.6642776,18.6462159 L1.34182857,18.6462159 C1.2546449,18.6462159 1.16729796,18.6368473 1.08142041,18.6195764 C1.04084898,18.6115927 1.00411429,18.5970102 0.96550204,18.5856864 C0.920848979,18.5724073 0.87627755,18.562387 0.83227755,18.5444644 C0.786971428,18.52589 0.745093877,18.4999022 0.702399999,18.4760326 C0.669093877,18.4580285 0.635134693,18.443446 0.603134693,18.4221833 C0.457257142,18.3250754 0.331379591,18.1994542 0.234155101,18.0538737 C0.212114285,18.0212872 0.19750204,17.9860937 0.178808163,17.9522037 C0.155542857,17.9102485 0.130155101,17.8697597 0.111542857,17.8251976 C0.0935836729,17.7812872 0.0828897953,17.7354216 0.0695836729,17.6909409 C0.0582367341,17.6530591 0.0436244892,17.6164807 0.0362775504,17.5772138 C0.018971428,17.490778 0.00966530555,17.4037719 0.00966530555,17.3166843 L0.00966530555,4.02136864 C0.00966530555,3.28743788 0.606481632,2.69183707 1.34182857,2.69183707 C2.07725714,2.69183707 2.67407347,3.28743788 2.67407347,4.02136864 L2.67407347,14.1071527 L16.3868898,0.422264766 C16.6473796,0.162386965 16.9877061,0.0327739308 17.328849,0.0327739308 C17.6699102,0.0327739308 18.0103184,0.162386965 18.2707265,0.422264766 C18.7909714,0.941450102 18.7909714,1.78307943 18.2707265,2.30226477" id="Fill-1" fill="#A7874D" mask="url(#mask-2)"></path>
                            </g>
                            <g id="Group-6" transform="translate(0.000000, 21.311446)">
                                <mask id="mask-4" fill="white">
                                    <use xlink:href="#path-3"></use>
                                </mask>
                                <g id="Clip-5"></g>
                                <path d="M17.3189959,15.996888 C16.583649,15.996888 15.986751,15.4012057 15.986751,14.6673564 L15.986751,4.5815723 L2.27393469,18.2663788 C1.7536898,18.7855642 0.91042449,18.7855642 0.390179592,18.2663788 C-0.130065306,17.7471935 -0.130065306,16.9055642 0.390179592,16.3864603 L14.1029959,2.7015723 L3.99654694,2.7015723 C3.2612,2.7015723 2.66430204,2.10597149 2.66430204,1.37204073 C2.66430204,0.637458248 3.2612,0.042509165 3.99654694,0.042509165 L17.3189959,0.042509165 C17.4062612,0.042509165 17.4935265,0.051796334 17.5794857,0.068496945 C17.6200571,0.0763991853 17.6567102,0.0917148676 17.6953224,0.10295723 C17.7399755,0.115665988 17.7846286,0.126256619 17.8286286,0.144260692 C17.8738531,0.162835031 17.9158939,0.188741344 17.9584245,0.212692464 C17.9918122,0.230615071 18.0257714,0.245279022 18.0576898,0.26589002 C18.2035673,0.363649695 18.3295265,0.488537678 18.426751,0.634851324 C18.4487102,0.667437882 18.4634041,0.702631365 18.482098,0.735869654 C18.5053633,0.778395112 18.5306694,0.818965377 18.5493633,0.863527495 C18.5673224,0.907356415 18.5779347,0.952570265 18.5913224,0.997784114 C18.6026694,1.03566599 18.6172816,1.0722444 18.6246286,1.11142974 C18.6419347,1.19786558 18.6512408,1.28495316 18.6512408,1.37204073 L18.6512408,14.6673564 C18.6512408,15.4012057 18.0544245,15.996888 17.3189959,15.996888" id="Fill-4" fill="#A7874D" mask="url(#mask-4)"></path>
                            </g>
                        </g>
                    </g>
                </g>
            </g>
        </g>
    </g>
</svg>