<?xml version="1.0" encoding="UTF-8"?>
<svg width="17px" height="17px" viewBox="0 0 17 17" version="1.1" xmlns="http://www.w3.org/2000/svg" xmlns:xlink="http://www.w3.org/1999/xlink">
    <!-- Generator: Sketch 53.2 (72643) - https://sketchapp.com -->
    <title>IG</title>
    <desc>Created with Sketch.</desc>
    <defs>
        <polygon id="path-1" points="0.000699999959 0.836 16.1977 0.836 16.1977 17 0.000699999959 17"></polygon>
    </defs>
    <g id="Desk" stroke="none" stroke-width="1" fill="none" fill-rule="evenodd">
        <g id="Desktop-home---slider-2" transform="translate(-1022.000000, -2985.000000)">
            <g id="Group-14" transform="translate(0.000000, 2641.000000)">
                <g id="Group-8" transform="translate(100.000000, 219.000000)">
                    <g id="Group-9-Copy" transform="translate(922.000000, 120.000000)">
                        <g id="IG" transform="translate(0.000000, 4.000000)">
                            <g id="Group-3" transform="translate(0.000000, 0.164640)">
                                <mask id="mask-2" fill="white">
                                    <use xlink:href="#path-1"></use>
                                </mask>
                                <g id="Clip-2"></g>
                                <path d="M8.2122,2.3926 L8.2122,2.3886 C6.9122,2.3886 5.6022,2.3226 4.3102,2.4086 C2.7282,2.5066 1.6702,3.4906 1.6142,5.0526 C1.5242,7.6066 1.5242,10.1706 1.6102,12.7246 C1.6622,14.2946 2.7122,15.3386 4.2862,15.3886 C6.8402,15.4746 9.4002,15.4746 11.9542,15.3846 C13.4622,15.3346 14.5242,14.2986 14.5762,12.8146 C14.6702,10.2166 14.6702,7.6066 14.5842,5.0106 C14.5282,3.5146 13.4782,2.5206 11.9782,2.4126 C10.7322,2.3226 9.4702,2.3926 8.2122,2.3926 L8.2122,2.3926 Z M8.1222,0.8566 C9.2862,0.8566 10.4582,0.8026 11.6182,0.8686 C14.2902,1.0206 15.9942,2.6426 16.1142,5.2946 C16.2242,7.7086 16.2282,10.1386 16.1102,12.5566 C15.9822,15.1506 14.3102,16.7986 11.7082,16.9166 C9.2902,17.0246 6.8602,17.0326 4.4422,16.9126 C1.8482,16.7826 0.2002,15.1066 0.0842,12.5106 C-0.0258,10.0926 -0.0298,7.6626 0.0882,5.2486 C0.2122,2.6506 1.8922,1.0526 4.4902,0.8766 C5.6962,0.7946 6.9122,0.8606 8.1222,0.8606 L8.1222,0.8566 Z" id="Fill-1" fill="#4A4A4A" mask="url(#mask-2)"></path>
                            </g>
                            <path d="M8.0402,6.36584 C6.6342,6.40184 5.4082,7.65584 5.4002,9.05784 C5.3962,10.51384 6.7042,11.79984 8.1582,11.76384 C9.5682,11.72984 10.7902,10.47984 10.7942,9.07584 C10.8022,7.61584 9.4902,6.32984 8.0402,6.36584 M12.2202,9.03784 C12.2322,11.33384 10.4502,13.15584 8.1622,13.18184 C5.8102,13.21784 3.9622,11.37384 3.9822,9.02584 C4.0002,6.73384 5.8102,4.94384 8.1022,4.94784 C10.3962,4.94784 12.2042,6.74384 12.2202,9.03784" id="Fill-4" fill="#4A4A4A"></path>
                            <path d="M12.9466,4.52984 C12.9466,4.93184 12.6266,5.25984 12.2206,5.25984 C11.8186,5.25984 11.4886,4.93184 11.4886,4.52984 C11.4886,4.12384 11.8186,3.79984 12.2206,3.79984 C12.6266,3.79984 12.9466,4.12384 12.9466,4.52984" id="Fill-6" fill="#4A4A4A"></path>
                        </g>
                    </g>
                </g>
            </g>
        </g>
    </g>
</svg>