<?xml version="1.0" encoding="UTF-8"?>
<svg width="144px" height="91px" viewBox="0 0 144 91" version="1.1" xmlns="http://www.w3.org/2000/svg" xmlns:xlink="http://www.w3.org/1999/xlink">
    <!-- Generator: Sketch 53.2 (72643) - https://sketchapp.com -->
    <title>Logo AO blanco</title>
    <desc>Created with Sketch.</desc>
    <defs>
        <polygon id="path-1" points="0.127590761 0.0874871239 39.9304436 0.0874871239 39.9304436 38.6446191 0.127590761 38.6446191"></polygon>
    </defs>
    <g id="Desk" stroke="none" stroke-width="1" fill="none" fill-rule="evenodd">
        <g id="Desktop-home---slider-2" transform="translate(-1010.000000, -2861.000000)">
            <g id="Group-14" transform="translate(0.000000, 2641.000000)">
                <g id="Group-8" transform="translate(100.000000, 219.000000)">
                    <g id="Logo-AO" transform="translate(910.000000, 1.000000)">
                        <g id="Group-4">
                            <g id="Group-49" transform="translate(0.000000, 50.000000)" fill="#0B0B0B">
                                <g id="Group-7">
                                    <path d="M3.75365661,9.28185986 L8.14901832,9.28185986 L6.07336935,3.29881169 L3.75365661,9.28185986 Z M8.35572539,9.8760219 L3.52674924,9.8760219 L2.84713401,11.6800396 C2.75332718,11.9204299 2.69577019,12.143922 2.69577019,12.3475179 C2.69577019,12.9792921 3.2052049,13.3695856 4.20553433,13.5363871 L4.18727105,13.6666667 C3.03557781,13.6666667 2.75332718,13.4439922 2.01698511,13.3327912 C1.33820003,13.4254587 0.752114903,13.6666667 0.0168796943,13.6666667 L4.52970994e-14,13.5363871 C1.16746607,13.2951791 1.65891422,12.774606 2.09252866,11.6800396 L6.4867835,0.455555556 L6.65724074,0.455555556 L10.6198182,11.6042703 C11.035446,12.7198231 11.4873238,13.3150754 12.6,13.5363871 L12.5817367,13.6666667 C11.6569508,13.6666667 11.1677164,13.5554657 10.3184741,13.3327912 C9.58213203,13.5363871 8.8651601,13.6666667 8.03528792,13.6666667 L8.01785479,13.5363871 C8.90224008,13.3883917 9.20386085,13.1092991 9.20386085,12.6274282 C9.20386085,12.4042086 9.14851759,12.143922 9.03451048,11.846841 L8.35572539,9.8760219 Z" id="Fill-1"></path>
                                    <path d="M21.9337734,6.55643798 C21.9337734,7.45317321 21.274143,8.11957496 19.9930174,8.19476878 L19.9363671,8.06255065 C20.427152,7.73857429 20.5962739,7.33912459 20.5962739,6.6704866 C20.5962739,5.69967567 19.9747787,5.03243533 19.0509645,5.03243533 C17.7880775,5.03243533 16.451407,6.30989169 16.451407,9.07193685 C16.451407,11.7403391 17.6955027,13.3786699 19.4649261,13.3786699 C20.5014883,13.3786699 21.690039,12.8081473 22.3104288,11.8543878 L22.5,11.9880035 C21.5750804,13.4561 20.2759925,14.1222222 18.8246397,14.1222222 C16.3961384,14.1222222 14.85,12.2353884 14.85,9.6254081 C14.85,6.99446295 16.3961384,4.55555556 19.277842,4.55555556 C20.9546906,4.55555556 21.9337734,5.43188503 21.9337734,6.55643798" id="Fill-3"></path>
                                    <path d="M26.8805716,9.07193685 L30.960441,8.51986325 C31.0564018,8.17659927 31.0765451,7.89091865 31.0765451,7.64269518 C31.0368179,5.71700658 30.2159761,4.99358053 29.225874,4.99358053 C27.6809903,4.99358053 26.8805716,6.84267765 26.8805716,9.03420017 L26.8805716,9.07193685 Z M32.6410127,7.94822249 C32.6410127,8.25291121 32.6021248,8.5573204 32.5061641,8.80498481 L26.8979173,9.5865533 C27.0702549,12.1979313 28.442801,13.3031966 29.911028,13.3031966 C30.9805844,13.3031966 32.105535,12.7122682 32.6580786,11.8351001 L32.85,11.9684364 C31.9536205,13.437651 30.6543739,14.1222222 29.2062902,14.1222222 C26.7834918,14.1222222 25.2,12.1601946 25.2,9.47250468 C25.2,6.7093414 26.8601485,4.55555556 29.3962533,4.55555556 C31.3985591,4.55555556 32.6410127,5.88919764 32.6410127,7.94822249 L32.6410127,7.94822249 Z" id="Fill-5"></path>
                                    <path d="M38.2143113,2.70857519 C37.6470483,2.70857519 37.2625224,2.33014709 37.2625224,1.80068092 C37.2625224,1.28898393 37.6470483,0.911111111 38.2143113,0.911111111 C38.7805009,0.911111111 39.1639535,1.28898393 39.1639535,1.80068092 C39.1639535,2.33014709 38.7805009,2.70857519 38.2143113,2.70857519 L38.2143113,2.70857519 Z M39.0364937,11.850543 C39.0364937,13.1385313 39.512254,13.7449047 40.5,13.9706289 L40.4637746,14.1222222 C39.6772809,14.1222222 38.9635063,13.8967757 38.1957961,13.7449047 C37.4278175,13.8967757 36.7685152,14.1222222 36.0185152,14.1222222 L36,13.9706289 C36.987746,13.7449047 37.5560823,13.1385313 37.5560823,11.850543 L37.5560823,6.81714384 C37.5560823,5.75682328 37.226297,5.49056316 36.237746,5.47307162 L36.2197674,5.32036769 C37.2429338,5.28288581 38.4147585,4.77202175 38.6710197,4.77202175 C38.9272809,4.77202175 39.0364937,4.82949396 39.0364937,5.28288581 L39.0364937,11.850543 Z" id="Fill-7"></path>
                                    <path d="M45.9092014,11.4229363 C45.9092014,12.8092445 46.1084309,13.3986764 47.1099126,13.3986764 C47.4366276,13.3986764 47.9457697,13.3222789 48.5639947,13.1131616 L48.6,13.2846378 C47.8913617,13.8171898 47.0739072,14.1222222 46.1823085,14.1222222 C45.2008298,14.1222222 44.4007112,13.4555563 44.4007112,11.8782543 L44.4007112,5.22386342 L43.2,5.22386342 L43.3282857,4.8061865 C44.8186398,4.61602918 45.1829604,3.83643993 45.7275745,1.82222222 L45.9092014,1.82222222 L45.9092014,4.61602918 L48.3455623,4.61602918 L48.3455623,5.22386342 L45.9092014,5.22386342 L45.9092014,11.4229363 Z" id="Fill-9"></path>
                                    <path d="M52.9794525,9.07193685 L57.0615601,8.51986325 C57.1583602,8.17659927 57.1754261,7.89091865 57.1754261,7.64269518 C57.1368179,5.71700658 56.3182142,4.99358053 55.3269931,4.99358053 C53.7798713,4.99358053 52.9794525,6.84267765 52.9794525,9.03420017 L52.9794525,9.07193685 Z M58.7398936,7.94822249 C58.7398936,8.25291121 58.7021248,8.5573204 58.6061641,8.80498481 L52.9979173,9.5865533 C53.1702549,12.1979313 54.5436403,13.3031966 56.0121471,13.3031966 C57.0805844,13.3031966 58.2074934,12.7122682 58.7591976,11.8351001 L58.95,11.9684364 C58.0525015,13.437651 56.7566121,14.1222222 55.3062902,14.1222222 C52.88573,14.1222222 51.3,12.1601946 51.3,9.47250468 C51.3,6.7093414 52.9612676,4.55555556 55.4982117,4.55555556 C57.4999579,4.55555556 58.7398936,5.88919764 58.7398936,7.94822249 L58.7398936,7.94822249 Z" id="Fill-11"></path>
                                    <path d="M72.3892956,13.3470154 C73.5789184,13.3470154 74.8634421,12.0557454 74.8634421,9.34585811 L74.8634421,7.75290258 C74.788973,5.98950165 73.7619993,5.2131826 72.7361009,5.2131826 C71.1789721,5.2131826 70.4638543,6.97658354 70.4638543,9.49795213 C70.4638543,12.340748 71.3241464,13.3470154 72.3892956,13.3470154 M77.85,13.6670524 L77.83145,13.8569613 C77.0612196,13.9337035 76.1810332,14.1222222 75.6159288,14.1222222 C75.1368537,14.1222222 74.8986603,13.9895918 74.8986603,12.9093627 L74.8986603,11.9047636 L74.8268796,11.9047636 C74.1832736,13.5922566 73.0302133,14.1222222 71.9481271,14.1222222 C70.3901918,14.1222222 68.85,12.9852707 68.85,9.85663823 C68.85,6.78695259 70.4638543,4.66375336 72.7527691,4.66375336 C73.7442558,4.66375336 74.4421678,5.11781103 74.8634421,5.9327792 L74.8634421,2.04701319 C74.8634421,1.00515521 74.533305,0.721542955 73.5415494,0.721542955 L73.5248813,0.569448929 C74.5497043,0.530799807 75.7234654,9.14823772e-14 75.9794023,9.14823772e-14 C76.2364146,9.14823772e-14 76.3469083,0.0759079871 76.3469083,0.511892324 L76.3469083,12.2829133 C76.3469083,13.4604603 77.0434761,13.6106079 77.85,13.6670524" id="Fill-13"></path>
                                    <path d="M82.6803872,9.07193685 L86.7609281,8.51986325 C86.8577175,8.17659927 86.8759005,7.89091865 86.8759005,7.64269518 C86.8361776,5.71700658 86.0176637,4.99358053 85.0265514,4.99358053 C83.4807182,4.99358053 82.6803872,6.84267765 82.6803872,9.03420017 L82.6803872,9.07193685 Z M88.4390774,7.94822249 C88.4390774,8.25291121 88.4013128,8.5573204 88.3053626,8.80498481 L82.697731,9.5865533 C82.8700497,12.1979313 84.2432845,13.3031966 85.7116302,13.3031966 C86.7799503,13.3031966 87.9070154,12.7122682 88.4583793,11.8351001 L88.65,11.9684364 C87.7528797,13.437651 86.4560135,14.1222222 85.0058507,14.1222222 C82.585556,14.1222222 81,12.1601946 81,9.47250468 C81,6.7093414 82.6610853,4.55555556 85.1988701,4.55555556 C87.1992778,4.55555556 88.4390774,5.88919764 88.4390774,7.94822249 L88.4390774,7.94822249 Z" id="Fill-15"></path>
                                    <path d="M102.397716,5.0507102 C100.888554,5.0507102 100.205541,6.85753647 100.205541,9.04542259 C100.205541,12.258488 101.421136,13.6290203 102.691014,13.6290203 C104.258242,13.6290203 104.974743,11.7641703 104.974743,9.65355618 C104.974743,6.36210286 103.7235,5.0507102 102.397716,5.0507102 M102.434176,14.1222222 C100.115067,14.1222222 98.55,12.2015801 98.55,9.48283244 C98.55,6.68653376 100.133432,4.55555556 102.655635,4.55555556 C105.031728,4.55555556 106.65,6.47703453 106.65,9.29146563 C106.65,11.9736695 105.013364,14.1222222 102.434176,14.1222222" id="Fill-17"></path>
                                    <path d="M112.831602,11.999023 C112.831602,13.192975 113.327442,13.7624239 114.3,13.9701282 L114.281416,14.1222222 C113.491196,14.1222222 112.775581,13.8961666 111.987246,13.7440725 C111.214801,13.8961666 110.59049,14.1222222 109.820739,14.1222222 L109.8,13.9701282 C110.792758,13.7624239 111.361857,13.192975 111.361857,11.999023 L111.361857,2.04701319 C111.361857,1.00515521 111.012533,0.721264903 110.024084,0.721264903 L110.024084,0.569448929 C111.051047,0.530799807 112.208367,9.14823772e-14 112.465579,9.14823772e-14 C112.721714,9.14823772e-14 112.831602,0.0759079871 112.831602,0.511892324 L112.831602,11.999023 Z" id="Fill-19"></path>
                                    <path d="M119.214311,2.70857519 C118.647048,2.70857519 118.262522,2.33014709 118.262522,1.80068092 C118.262522,1.28898393 118.647048,0.911111111 119.214311,0.911111111 C119.780501,0.911111111 120.163953,1.28898393 120.163953,1.80068092 C120.163953,2.33014709 119.780501,2.70857519 119.214311,2.70857519 L119.214311,2.70857519 Z M120.036494,11.850543 C120.036494,13.1385313 120.511986,13.7449047 121.5,13.9706289 L121.463775,14.1222222 C120.677281,14.1222222 119.963506,13.8967757 119.195796,13.7449047 C118.427818,13.8967757 117.768515,14.1222222 117.018515,14.1222222 L117,13.9706289 C117.987746,13.7449047 118.556082,13.1385313 118.556082,11.850543 L118.556082,6.81714384 C118.556082,5.75682328 118.226297,5.49056316 117.237746,5.47307162 L117.219767,5.32036769 C118.242934,5.28288581 119.414758,4.77202175 119.67102,4.77202175 C119.927281,4.77202175 120.036494,4.82949396 120.036494,5.28288581 L120.036494,11.850543 Z" id="Fill-21"></path>
                                    <path d="M126.800087,5.61508222 C126.800087,5.85780518 126.875022,6.1558908 127.006226,6.47006705 L129.082163,11.3048904 L130.262727,8.38539671 C130.804013,7.02887532 131.048305,6.1727996 131.048305,5.63499095 C131.048305,5.05872845 130.766957,4.83400516 130.30088,4.74155226 L130.317624,4.55555556 C131.048305,4.55555556 131.234132,4.72273441 131.703228,4.79827852 C132.227497,4.72273441 132.619737,4.55555556 133.182158,4.55555556 L133.2,4.74155226 C132.488807,5.00200218 132.058413,5.57744652 130.82405,8.51793981 L128.670983,13.6666667 L128.559816,13.6666667 L125.620621,6.97296722 C125.059298,5.69062633 124.536128,4.96600282 123.75,4.74155226 L123.76894,4.55555556 C124.236114,4.55555556 125.134507,4.63109967 125.676616,4.79827852 C126.144889,4.64909935 127.006226,4.55555556 127.530494,4.55555556 L127.530494,4.74155226 C127.042458,4.87164086 126.800087,5.16890831 126.800087,5.61508222" id="Fill-23"></path>
                                    <path d="M140.869858,9.87879923 L140.495023,9.89797258 C138.319984,10.0116233 137.026621,10.7496582 137.026621,11.9811984 C137.026621,12.8139886 137.474609,13.3463963 138.226481,13.3463963 C139.36914,13.3463963 140.775531,12.208222 140.869858,9.87879923 L140.869858,9.87879923 Z M142.388178,11.4699092 C142.388178,13.1946768 142.781164,13.4781089 144,13.6098215 L143.982124,13.7618189 C143.175251,13.8560184 142.556758,13.9716142 142.050468,13.9716142 C141.188593,13.9716142 140.943011,13.8196168 140.887734,11.8111392 C140.288491,13.2880427 139.163709,14.1222222 137.795544,14.1222222 C136.351201,14.1222222 135.45,13.4589356 135.45,12.1140225 C135.45,10.8246844 136.275024,9.63149084 140.474672,9.44225824 L140.869858,9.42503001 L140.869858,8.70366756 C140.869858,5.88018377 140.08086,5.02960962 138.843049,5.02960962 C137.85082,5.02960962 137.382482,5.57841195 137.382482,6.56375528 C137.382482,7.20703497 137.589013,7.73777545 138.131328,8.09734518 L138.075227,8.22961349 C136.688086,8.22961349 135.995341,7.58577805 135.995341,6.60126835 C135.995341,5.06601119 137.343705,4.55555556 138.995404,4.55555556 C141.001312,4.55555556 142.388178,5.50144069 142.388178,8.66754386 L142.388178,11.4699092 Z" id="Fill-25"></path>
                                </g>
                                <g id="Group-6" transform="translate(12.000000, 22.777778)">
                                    <path d="M7.2833183,13.2111111 C6.56456267,13.2111111 4.68530207,13.1930456 2.78629396,12.8577382 C1.93525699,13.0444154 0.922723174,13.1930456 0.0178539225,13.1930456 L0,13.0613861 C1.40207394,12.8018992 2.06564472,12.2032729 2.06564472,10.5812063 L2.06564472,3.05964571 C2.06564472,1.34396676 1.40207394,0.708388181 0,0.428919737 L0.0178539225,0.317515568 C0.941659152,0.317515568 1.91767358,0.447806439 2.84039675,0.616418154 C3.83642922,0.410854196 7.83841298,0.447806439 8.63020739,-9.05941988e-14 L8.796844,-9.05941988e-14 C8.7581605,1.04561161 8.52064923,2.36959679 8.50090171,3.30216191 L8.29882777,3.30216191 C8.00396754,1.38064528 7.89359784,1.00756449 5.90207394,1.00756449 C3.94571686,1.00756449 3.65085663,1.49232317 3.65085663,2.76129056 L3.65085663,5.78425774 L5.5509468,5.78425774 C6.21451758,5.78425774 6.75067628,5.67257985 7.08124436,4.87057932 L7.26654644,4.87057932 C7.228945,5.95286946 6.98845807,7.16517674 6.98845807,8.0429978 L6.84238052,8.0429978 C6.65734896,6.8668216 6.3270514,6.43790186 5.7541028,6.41901516 L3.65085663,6.41901516 L3.65085663,10.5812063 C3.65085663,11.5876759 3.8729486,12.5024492 5.9748422,12.5024492 C7.74481515,12.5024492 8.59477006,11.51514 8.83417493,9.66615928 L9,9.66615928 C8.78007214,13.0991595 9.07385032,13.2111111 7.2833183,13.2111111" id="Fill-27"></path>
                                    <path d="M15.7180209,8.69237308 L14.1145204,6.18250851 C13.3973032,5.0858916 13.0013396,4.5096291 12.0187632,4.28490581 L12.0572251,4.1 C12.472558,4.1 13.4537509,4.17472595 14.0389801,4.34272297 C14.5481158,4.1935438 15.4709241,4.1 16.0005358,4.1 L16.0365074,4.28490581 C15.5475712,4.4160853 15.2844255,4.67544434 15.2844255,5.06707375 C15.2844255,5.32670551 15.396214,5.66269955 15.6413739,6.03332934 L16.7357388,7.70648148 L17.6795766,6.4606854 C18.2454366,5.73606189 18.5107959,5.25225229 18.5107959,4.91898547 C18.5107959,4.602082 18.2645292,4.4160853 17.8115645,4.28490581 L17.8480894,4.1 C18.5841225,4.1 18.7354796,4.26690613 19.2246926,4.34272297 C19.7360418,4.26690613 20.2451774,4.1 20.8110374,4.1 L20.8483925,4.28490581 C20.0750044,4.47172068 19.5274069,5.03025623 18.0567243,6.87140539 L17.0381764,8.15347355 L18.8292823,10.8684254 C19.6784874,12.1695841 20.0559118,12.7837551 21.15,13.0242962 L21.1126449,13.2111111 C20.5642173,13.2111111 19.6220397,13.1366579 19.0370871,12.9697518 C18.4905965,13.11784 17.3970617,13.2111111 16.8314784,13.2111111 L16.7932932,13.0242962 C17.3970617,12.8950258 17.7360242,12.6533937 17.7360242,12.2260377 C17.7360242,11.9824965 17.6234057,11.6664112 17.377139,11.2769636 L16.0196284,9.17536452 L15.0193429,10.5520674 C14.3585734,11.4637785 13.9994115,12.040041 13.9994115,12.4297613 C13.9994115,12.764119 14.2647707,12.9318433 14.8505534,13.0242962 L14.8115381,13.2111111 C14.0196109,13.2111111 13.7553584,13.0422959 13.2268535,12.9697518 C12.7376405,13.0422959 12.2650299,13.2111111 11.7381852,13.2111111 L11.7,13.0242962 C12.472558,12.801482 13.0190487,12.2988546 14.5279164,10.2727996 L15.7180209,8.69237308 Z" id="Fill-29"></path>
                                    <path d="M26.5581345,10.5126958 C26.5581345,11.8980143 26.7594977,12.4872208 27.7588458,12.4872208 C28.0871611,12.4872208 28.5949696,12.4113741 29.2139947,12.201959 L29.25,12.3734507 C28.5413617,12.9071664 27.7228404,13.2111111 26.8331086,13.2111111 C25.850563,13.2111111 25.0504445,12.5452213 25.0504445,10.9669397 L25.0504445,4.31306078 L23.85,4.31306078 L23.9772188,3.89423059 C25.4683731,3.70517141 25.8318936,2.92439608 26.3773077,0.911111111 L26.5581345,0.911111111 L26.5581345,3.70517141 L28.9963624,3.70517141 L28.9963624,4.31306078 L26.5581345,4.31306078 L26.5581345,10.5126958 Z" id="Fill-31"></path>
                                    <path d="M34.4982466,6.32819623 C34.8967865,5.04369671 35.8255579,3.64444444 37.1696638,3.64444444 C37.7689399,3.64444444 38.3858104,3.89251289 38.2237286,4.67975049 L37.7513455,6.99871229 L37.5143542,6.99871229 C37.5716693,5.31145313 37.2072519,4.64093707 36.5885153,4.64093707 C35.5896329,4.64093707 34.5526293,6.23172517 34.4982466,8.8398189 L34.4982466,10.910431 C34.4982466,12.2143372 34.9890239,12.8283207 35.9537838,13.0572637 L35.9324572,13.2111111 C35.1532383,13.2111111 34.4430642,12.9821681 33.6617126,12.8283207 C32.9184823,12.9821681 32.2624242,13.2111111 31.5183942,13.2111111 L31.5,13.0572637 C32.4804882,12.8283207 33.0448421,12.2143372 33.0448421,10.910431 L33.0448421,5.81040258 C33.0448421,4.73712687 32.6969527,4.46655789 31.7351252,4.44996374 L31.7185972,4.29442876 C32.7348074,4.25758413 33.8968378,3.73866545 34.1524899,3.73866545 C34.3894812,3.73866545 34.4982466,3.79716685 34.4982466,4.25758413 L34.4982466,6.32819623 Z" id="Fill-33"></path>
                                    <path d="M46.8195835,8.96768812 L46.4439225,8.98574997 C44.2697089,9.09940068 42.973596,9.83854711 42.973596,11.0700873 C42.973596,11.9028775 43.4265343,12.4344516 44.1745561,12.4344516 C45.3191396,12.4344516 46.7252557,11.2971109 46.8195835,8.96768812 L46.8195835,8.96768812 Z M48.3362528,10.5576866 C48.3362528,12.2824542 48.7311644,12.5669978 49.95,12.6987104 L49.9318495,12.8507078 C49.1260759,12.9440736 48.5056578,13.0593916 47.999368,13.0593916 C47.1363927,13.0593916 46.8946607,12.9073942 46.836634,10.8989166 C46.2362914,12.3766537 45.1126086,13.2111111 43.7433435,13.2111111 C42.2998263,13.2111111 41.4,12.5469908 41.4,11.2017999 C41.4,9.91357325 42.2258491,8.72037973 46.4254969,8.53003563 L46.8195835,8.5128074 L46.8195835,7.79172282 C46.8195835,4.96907265 46.0308604,4.11822063 44.7949743,4.11822063 C43.7997202,4.11822063 43.3313815,4.66702297 43.3313815,5.65153267 C43.3313815,6.29592386 43.5368125,6.82638647 44.0813284,7.18512257 L44.0260518,7.31794663 C42.6367112,7.31794663 41.9439659,6.67466694 41.9439659,5.68904574 C41.9439659,4.15490008 43.2945304,3.64444444 44.9432036,3.64444444 C46.9499373,3.64444444 48.3362528,4.59032958 48.3362528,7.75532125 L48.3362528,10.5576866 Z" id="Fill-35"></path>
                                    <path d="M60.9698817,1.62552214 C60.9698817,1.81247696 61.0244768,2.01605606 61.1161965,2.27523104 L64.2062784,10.8604366 L67.277525,2.46191334 C67.3692448,2.22072526 67.4082803,1.99697903 67.4082803,1.79339994 C67.4082803,1.16058783 66.9805278,0.753429647 66.0488626,0.585551842 L66.0690628,0.455555556 C67.0171065,0.455555556 67.4639672,0.659134646 68.0787079,0.771144025 C68.7851683,0.677666612 69.3990901,0.455555556 70.1800728,0.455555556 L70.2,0.585551842 C68.9713376,0.826739922 68.5064604,1.10499193 68.0022748,2.46191334 L63.7965423,13.6666667 L63.6283894,13.6666667 L59.5351228,2.49870474 C59.089354,1.34727013 58.6616015,0.826739922 57.6,0.585551842 L57.6379436,0.455555556 C58.3812557,0.455555556 59.1450409,0.54876044 59.9462238,0.771144025 C60.633849,0.585551842 61.6026388,0.455555556 62.4027298,0.455555556 L62.4027298,0.585551842 C61.4525023,0.733535037 60.9698817,1.03140913 60.9698817,1.62552214" id="Fill-37"></path>
                                    <path d="M74.6633699,1.79757741 C74.0960731,1.79757741 73.7125977,1.41912545 73.7125977,0.88879291 C73.7125977,0.376785998 74.0960731,-9.05941988e-14 74.6633699,-9.05941988e-14 C75.2306667,-9.05941988e-14 75.6141422,0.376785998 75.6141422,0.88879291 C75.6141422,1.41912545 75.2306667,1.79757741 74.6633699,1.79757741 L74.6633699,1.79757741 Z M75.4869432,10.9401217 C75.4869432,12.2273581 75.9624635,12.8334921 76.95,13.0595082 L76.9129674,13.2111111 C76.1275001,13.2111111 75.4147564,12.9853727 74.645927,12.8334921 C73.8779027,12.9853727 73.218561,13.2111111 72.4674429,13.2111111 L72.45,13.0595082 C73.4380732,12.8334921 74.0061751,12.2273581 74.0061751,10.9401217 L74.0061751,5.90529447 C74.0061751,4.84574004 73.675565,4.57863014 72.6866867,4.56224814 L72.6700489,4.40842394 C73.6932763,4.37205035 74.8638291,3.86004344 75.121179,3.86004344 C75.376382,3.86004344 75.4869432,3.91779693 75.4869432,4.37205035 L75.4869432,10.9401217 Z" id="Fill-39"></path>
                                    <path d="M82.6488427,6.32819623 C83.0471598,5.04369671 83.9762998,3.64444444 85.3202868,3.64444444 C85.9198953,3.64444444 86.536567,3.89251289 86.373401,4.67975049 L85.9020324,6.99871229 L85.665015,6.99871229 C85.7204702,5.31145313 85.3578789,4.64093707 84.7390744,4.64093707 C83.7400822,4.64093707 82.7032313,6.23172517 82.6488427,8.8398189 L82.6488427,10.910431 C82.6488427,12.2143372 83.1394072,12.8283207 84.1045397,13.0572637 L84.0832108,13.2111111 C83.3036397,13.2111111 82.5933875,12.9821681 81.8119501,12.8283207 C81.0686381,12.9821681 80.4127746,13.2111111 79.6683962,13.2111111 L79.65,13.0572637 C80.630596,12.8283207 81.1950118,12.2143372 81.1950118,10.910431 L81.1950118,5.81040258 C81.1950118,4.73712687 80.8470842,4.46655789 79.8851511,4.44996374 L79.8686212,4.29442876 C80.884943,4.25758413 82.0471012,3.73866545 82.3017149,3.73866545 C82.5400653,3.73866545 82.6488427,3.79716685 82.6488427,4.25758413 L82.6488427,6.32819623 Z" id="Fill-41"></path>
                                    <path d="M92.7229968,4.208237 C91.3209588,4.208237 90.7923807,5.36222273 90.7923807,6.74506146 C90.7923807,8.67753624 91.7008569,9.68071228 92.9141964,9.68071228 C94.314289,9.68071228 94.8275822,8.33620087 94.8275822,6.89698208 C94.8275822,4.92701319 93.8026633,4.208237 92.7229968,4.208237 M95.9833951,15.2278981 C95.9833951,13.7895125 94.4679713,13.4867822 93.102617,13.3543029 L92.211371,13.2782038 C90.847962,13.7520184 90.1654238,14.3188739 90.1654238,15.3434355 C90.1654238,16.6490641 91.3765401,17.2161974 92.8183187,17.2161974 C94.6941871,17.2161974 95.9833951,16.4771466 95.9833951,15.2278981 M92.7229968,10.1725796 C92.3633858,10.1725796 92.0221167,10.1353632 91.7008569,10.0589863 C91.0566698,10.2295151 90.6009032,10.6269528 90.6009032,11.0429987 C90.6009032,11.478486 91.112251,11.8589818 92.0604678,11.9523005 L93.4986336,12.1042212 C95.8305465,12.3491828 97.3073414,12.8429942 97.3073414,14.6227152 C97.3073414,17.0459463 94.7325382,17.7666667 92.4959472,17.7666667 C90.6211904,17.7666667 88.65,17.3478434 88.65,15.7017127 C88.65,14.489125 89.7682955,13.6000977 91.3028949,13.1829409 C89.921144,12.9929707 89.1988652,12.4644425 89.1988652,11.5554183 C89.1988652,10.5897364 90.0528717,10.1159218 91.0952987,9.86984929 C89.9383742,9.37687103 89.2183187,8.316204 89.2183187,6.99168946 C89.2183187,5.1169834 90.6595415,3.69803922 92.9141964,3.69803922 C93.708453,3.69803922 94.409333,3.88634302 94.9593099,4.208237 C95.8122047,4.16963194 96.4555581,3.54417445 96.4555581,2.75041002 C96.4555581,2.46684337 96.343006,2.20077398 96.0198008,1.95497918 L96.0959472,1.82222222 C97.1586614,1.99330651 97.65,2.48545156 97.65,3.01453527 C97.65,3.96216447 96.6842751,4.45319859 95.4131311,4.53013097 C96.0392543,5.05949241 96.3988652,5.81770686 96.3988652,6.74506146 C96.3988652,8.61976752 94.9593099,10.1725796 92.7229968,10.1725796" id="Fill-43"></path>
                                    <path d="M102.029514,8.15970761 L106.111491,7.60763402 C106.207455,7.26437003 106.224802,6.97896895 106.224802,6.73158407 C106.186752,4.80589547 105.367279,4.08246942 104.376861,4.08246942 C102.828843,4.08246942 102.029514,5.93044842 102.029514,8.12308906 L102.029514,8.15970761 Z M107.790166,7.03683185 C107.790166,7.34040245 107.750157,7.64620929 107.656151,7.89275557 L102.0477,8.67544218 C102.220323,11.285702 103.593759,12.3920855 105.062319,12.3920855 C106.130796,12.3920855 107.255788,11.8008776 107.809191,10.923989 L108,11.0573253 C107.101629,12.5254217 105.805692,13.2111111 104.356437,13.2111111 C101.934669,13.2111111 100.35,11.2479654 100.35,8.56139356 C100.35,5.79823029 102.011328,3.64444444 104.548365,3.64444444 C106.549905,3.64444444 107.790166,4.9769684 107.790166,7.03683185 L107.790166,7.03683185 Z" id="Fill-45"></path>
                                    <path d="M113.796,6.01548241 L113.832932,6.01548241 C114.578685,4.12297424 115.902767,3.64444444 116.966957,3.64444444 C118.422627,3.64444444 119.465752,4.39016507 119.465752,7.5088883 L119.465752,10.685428 C119.465752,12.4255364 119.83945,12.6944112 121.05,12.8282873 L121.031944,12.9818097 C120.229288,13.0758317 119.615942,13.2111111 119.111752,13.2111111 C118.02978,13.2111111 117.955915,12.9818097 117.955915,8.84933306 L117.955915,7.66044613 C117.955915,5.19398287 117.451178,4.44826224 116.369479,4.44826224 C114.877698,4.44826224 113.796,6.11174969 113.796,8.88609987 L113.796,10.895083 C113.796,12.1959544 114.280493,12.8089216 115.287781,13.0373809 L115.269725,13.1906227 C114.449286,13.1906227 113.741285,12.962444 112.938355,12.8089216 C112.15567,12.962444 111.500468,13.1906227 110.717782,13.1906227 L110.7,13.0373809 C111.707014,12.8089216 112.303398,12.1959544 112.303398,10.895083 L112.303398,5.80582742 C112.303398,4.73481879 111.949397,4.46482133 110.941016,4.44826224 L110.941016,4.29277514 C111.987424,4.25600833 113.161042,3.73846643 113.422028,3.73846643 C113.683288,3.73846643 113.796,3.79684426 113.796,4.25600833 L113.796,6.01548241 Z" id="Fill-47"></path>
                                </g>
                            </g>
                            <g id="logo-AO" transform="translate(34.000000, 0.000000)">
                                <path d="M20.5284652,22.2499257 L16.6539863,11.8813597 L12.8827611,22.2499257 L20.5284652,22.2499257 Z M23.9314308,38.2019236 L23.9314308,37.6693077 C24.8215971,36.7126744 25.3464992,35.010701 24.1943223,31.8727937 L22.5186529,27.513466 L10.9972366,27.513466 L9.32174346,32.0873071 C8.43175334,34.6396411 8.43175334,36.7126744 9.26923562,37.6693077 L9.26923562,38.2019236 L1.76200776e-05,38.2019236 L1.76200776e-05,37.6693077 C1.46741768,37.0835554 2.72425781,34.7459138 3.77106662,32.0873071 L12.8307819,8.05196422 C14.4542958,3.74541502 13.7209482,1.88439035 13.1442431,1.51297262 L13.1442431,0.980714557 L20.7904757,0.980714557 L33.3587009,32.2463584 C34.3008464,34.6396411 35.8722049,37.0835554 37.3898222,37.6693077 L37.3898222,38.2019236 L23.9314308,38.2019236 Z" id="Fill-1" fill="#0B0B0B"></path>
                                <g id="Group-5" transform="translate(33.830549, 0.091423)">
                                    <mask id="mask-2" fill="white">
                                        <use xlink:href="#path-1"></use>
                                    </mask>
                                    <g id="Clip-4"></g>
                                    <path d="M30.2929836,17.851363 C29.1408067,10.0353098 24.5322754,4.08010247 17.4107687,5.1430084 C10.0797592,6.31200813 8.7177272,14.076714 9.76506461,20.8828187 C10.9177701,28.6988718 15.5255966,34.654437 22.6479843,33.5362478 C29.9789938,32.4205633 31.3396162,24.6572887 30.2929836,17.851363 M21.1811129,38.6407368 C7.56625513,38.8547135 0.234540852,30.241794 0.129877592,19.5526208 C-0.0272935001,8.91729954 7.93292894,0.197928436 19.1382411,0.0911190024 C32.7539798,-0.120710762 39.8242121,8.49274546 39.9281706,19.1260987 C40.0848131,29.8145562 32.3880108,38.5342852 21.1811129,38.6407368" id="Fill-3" fill="#0B0B0B" mask="url(#mask-2)"></path>
                                </g>
                            </g>
                        </g>
                    </g>
                </g>
            </g>
        </g>
    </g>
</svg>