<?xml version="1.0" encoding="UTF-8"?>
<svg width="60px" height="32px" viewBox="0 0 60 32" version="1.1" xmlns="http://www.w3.org/2000/svg" xmlns:xlink="http://www.w3.org/1999/xlink">
    <!-- Generator: Sketch 53.2 (72643) - https://sketchapp.com -->
    <title>Logo AO</title>
    <desc>Created with Sketch.</desc>
    <defs>
        <polygon id="path-1" points="0.102472881 0.0695070032 32.069623 0.0695070032 32.069623 30.70248 0.102472881 30.70248"></polygon>
    </defs>
    <g id="Desk" stroke="none" stroke-width="1" fill="none" fill-rule="evenodd">
        <g id="Desktop-home---slider-2" transform="translate(-140.000000, -54.000000)">
            <g id="cabecera" transform="translate(137.000000, 50.000000)">
                <g id="Iso-AO-blanco" transform="translate(0.000000, 3.000000)">
                    <g id="Group-4" transform="translate(3.212549, 1.588965)">
                        <g id="logo-AO">
                            <path d="M16.4871732,17.6771803 L13.3754353,9.43953432 L10.3466242,17.6771803 L16.4871732,17.6771803 Z M19.2202213,30.350766 L19.2202213,29.9276119 C19.935147,29.1675834 20.3567154,27.815395 19.4313593,25.3223821 L18.085567,21.8589717 L8.83228939,21.8589717 L7.48663856,25.4928092 C6.77185442,27.5205943 6.77185442,29.1675834 7.44446757,29.9276119 L7.44446757,30.350766 L1.4151339e-05,30.350766 L1.4151339e-05,29.9276119 C1.17853767,29.4622419 2.18795268,27.6050262 3.02868373,25.4928092 L10.3048777,6.39714598 C11.6087821,2.9756673 11.0198034,1.49711546 10.55663,1.20203052 L10.55663,0.779160714 L16.6976036,0.779160714 L26.7916122,25.6191727 C27.5482843,27.5205943 28.8103008,29.4622419 30.0291556,29.9276119 L30.0291556,30.350766 L19.2202213,30.350766 Z" id="Fill-1" fill="#FFFFFF"></path>
                            <g id="Group-5" transform="translate(27.170571, 0.072634)">
                                <mask id="mask-2" fill="white">
                                    <use xlink:href="#path-1"></use>
                                </mask>
                                <g id="Clip-4"></g>
                                <path d="M24.3294208,14.1825984 C23.4040647,7.97287969 19.702782,3.24157068 13.9832353,4.08603102 C8.09542916,5.01478104 7.00153065,11.1837052 7.84268625,16.5910374 C8.76846685,22.8007561 12.4691835,27.5323494 18.1894378,26.6439675 C24.0772439,25.7575755 25.1700103,19.5897884 24.3294208,14.1825984 M17.0113388,30.6993955 C6.07674065,30.8693963 0.188368474,24.026581 0.10430952,15.5342182 C-0.0219204242,7.08463989 6.37123001,0.157250711 15.3706326,0.0723924678 C26.3059383,-0.0959026075 31.9843046,6.74733904 32.0677975,15.1953538 C32.1936029,23.6871481 26.012015,30.6148215 17.0113388,30.6993955" id="Fill-3" fill="#FFFFFF" mask="url(#mask-2)"></path>
                            </g>
                        </g>
                    </g>
                </g>
            </g>
        </g>
    </g>
</svg>